name GIL08_slow4.mot
datacolumns 153
datarows 4
range 0.86666673 0.89166671
endheader

                time	           pelvis_tx	           pelvis_ty	           pelvis_tz	         pelvis_tilt	         pelvis_list	     pelvis_rotation	       hip_flexion_r	     hip_adduction_r	      hip_rotation_r	        knee_angle_r	       ankle_angle_r	    subtalar_angle_r	         mtp_angle_r	       hip_flexion_l	     hip_adduction_l	      hip_rotation_l	        knee_angle_l	       ankle_angle_l	    subtalar_angle_l	         mtp_angle_l	    lumbar_extension	      lumbar_bending	     lumbar_rotation	     ground_force_vx	     ground_force_vy	     ground_force_vz	     ground_force_px	     ground_force_py	     ground_force_pz	     ground_force_vx	     ground_force_vy	     ground_force_vz	     ground_force_px	     ground_force_py	     ground_force_pz	     ground_torque_x	     ground_torque_y	     ground_torque_z	     ground_torque_x	     ground_torque_y	     ground_torque_z	    ground_marker_px	    ground_marker_py	    ground_marker_pz	    ground_marker_px	    ground_marker_py	    ground_marker_pz	    ground_marker_px	    ground_marker_py	    ground_marker_pz	    ground_marker_px	    ground_marker_py	    ground_marker_pz	    ground_marker_px	    ground_marker_py	    ground_marker_pz	    ground_marker_px	    ground_marker_py	    ground_marker_pz	    ground_marker_px	    ground_marker_py	    ground_marker_pz	    ground_marker_px	    ground_marker_py	    ground_marker_pz	    ground_marker_px	    ground_marker_py	    ground_marker_pz	    ground_marker_px	    ground_marker_py	    ground_marker_pz	    ground_marker_px	    ground_marker_py	    ground_marker_pz	    ground_marker_px	    ground_marker_py	    ground_marker_pz	    ground_marker_px	    ground_marker_py	    ground_marker_pz	    ground_marker_px	    ground_marker_py	    ground_marker_pz	    ground_marker_px	    ground_marker_py	    ground_marker_pz	    ground_marker_px	    ground_marker_py	    ground_marker_pz	    ground_marker_px	    ground_marker_py	    ground_marker_pz	    ground_marker_px	    ground_marker_py	    ground_marker_pz	    ground_marker_px	    ground_marker_py	    ground_marker_pz	    ground_marker_px	    ground_marker_py	    ground_marker_pz	    ground_marker_px	    ground_marker_py	    ground_marker_pz	    ground_marker_px	    ground_marker_py	    ground_marker_pz	    ground_marker_px	    ground_marker_py	    ground_marker_pz	    ground_marker_px	    ground_marker_py	    ground_marker_pz	    ground_marker_px	    ground_marker_py	    ground_marker_pz	    ground_marker_px	    ground_marker_py	    ground_marker_pz	    ground_marker_px	    ground_marker_py	    ground_marker_pz	    ground_marker_px	    ground_marker_py	    ground_marker_pz	    ground_marker_px	    ground_marker_py	    ground_marker_pz	    ground_marker_px	    ground_marker_py	    ground_marker_pz	    ground_marker_px	    ground_marker_py	    ground_marker_pz	    ground_marker_px	    ground_marker_py	    ground_marker_pz	    ground_marker_px	    ground_marker_py	    ground_marker_pz	    ground_marker_px	    ground_marker_py	    ground_marker_pz	    ground_marker_px	    ground_marker_py	    ground_marker_pz	    ground_marker_px	    ground_marker_py	    ground_marker_pz	    ground_marker_px	    ground_marker_py	    ground_marker_pz	
          0.86666673	         -1.69716907	          0.97231746	          0.19890195	          5.47851992	         -1.58901143	          4.89446259	         14.81965256	         -0.17645973	         -1.34330153	        -14.77785110	         -5.34737730	          0.00000000	          0.00000000	        -15.28951645	         -3.82619095	          5.79686499	        -23.96224022	          9.85200977	          0.00000000	          0.00000000	        -23.63719559	          2.32423449	          0.58935857	        -47.35083723	        346.61649982	          5.53025443	         -1.58964062	          0.00000000	          0.25617130	         43.03737142	        323.91378887	         -0.91438462	         -1.96579175	          0.00000000	          0.15521733	          0.00000000	          0.92446863	          0.00000000	          0.00000000	          0.25219662	          0.00000000	         -1.77302551	          0.88895154	          0.20849285	         -1.76923537	          0.87522179	          0.26049462	         -1.77860367	          0.87332916	          0.15435410	         -1.62661088	          0.48780814	          0.25609109	         -1.85131764	          0.46596101	          0.14029494	         -1.58734322	          0.07164347	          0.25046486	         -2.08849359	          0.11571112	          0.14785184	         -1.69716907	          0.97231746	          0.19890195	         -1.68793213	          0.97418356	          0.30355468	         -1.70640588	          0.97045130	          0.09424921	         -1.89638937	          0.99575388	          0.25564975	         -1.90438509	          0.99615705	          0.17131375	         -1.62274837	          0.48855522	          0.31546092	         -1.84993935	          0.46776694	          0.08083832	         -1.64138687	          0.49792314	          0.19457918	         -1.85185814	          0.46761870	          0.19140455	         -1.59245348	          0.07065240	          0.28810662	         -2.09239364	          0.11750478	          0.10858577	         -1.58684075	          0.07589301	          0.21749780	         -2.07793093	          0.12344943	          0.17681539	         -1.83279526	          1.45141232	          0.21551262	         -1.72923791	          1.37730610	          0.28935760	         -1.74251378	          1.38104355	          0.13425612	         -1.74847651	          1.38070214	          0.20894459	         -1.71380186	          1.17920756	          0.19434966	         -1.63192153	          0.58790570	          0.40122700	         -1.67836201	          0.56710309	          0.12241355	         -1.62696469	          0.65520328	          0.33373573	         -1.74551332	          0.64015943	          0.08863085	         -1.60571551	          0.57862049	          0.30628049	         -1.77025545	          0.55635923	          0.09296921	         -1.58859873	          0.14642312	          0.35600483	         -1.94099772	          0.15621537	          0.14692305	         -1.61041319	          0.20148034	          0.29413280	         -1.97080255	          0.23391694	          0.13681781	         -1.46381783	          0.04685867	          0.24679139	         -1.98495770	          0.04338894	          0.14594741	
          0.87500006	         -1.69006073	          0.97336352	          0.19990115	          5.48181391	         -1.59385431	          4.78879309	         14.41187668	         -0.08866493	         -1.05610347	        -14.86935329	         -5.20183182	          0.00000000	          0.00000000	        -14.94986153	         -3.98373246	          5.39042187	        -25.15965462	          8.45097542	          0.00000000	          0.00000000	        -23.53694534	          2.41476631	          0.64393574	        -50.64311358	        370.07822604	          1.04496493	         -1.58612524	          0.00000000	          0.25657523	         39.86207325	        287.31404714	         -1.98408293	         -1.96504065	          0.00000000	          0.15564606	          0.00000000	          1.11819189	          0.00000000	          0.00000000	          0.30618881	          0.00000000	         -1.76621628	          0.88954782	          0.20916928	         -1.76222861	          0.87627822	          0.26139089	         -1.77140331	          0.87435341	          0.15523404	         -1.62239063	          0.48795304	          0.25698760	         -1.84177387	          0.46634302	          0.13981742	         -1.58681667	          0.07149111	          0.25077951	         -2.08407474	          0.11963070	          0.14699893	         -1.69006073	          0.97336352	          0.19990115	         -1.68102205	          0.97525984	          0.30448505	         -1.69909942	          0.97146726	          0.09531725	         -1.88934135	          0.99673444	          0.25606689	         -1.89712930	          0.99720532	          0.17174183	         -1.61832786	          0.48874301	          0.31634349	         -1.84069276	          0.46840301	          0.08036292	         -1.63645267	          0.49853417	          0.19551571	         -1.84027088	          0.46638721	          0.19105658	         -1.59178627	          0.07050520	          0.28844026	         -2.08846259	          0.12188551	          0.10780822	         -1.58597064	          0.07596855	          0.21789412	         -2.07325888	          0.12746617	          0.17585646	         -1.82619321	          1.45234621	          0.21737877	         -1.72264433	          1.37832785	          0.29126614	         -1.73572218	          1.38230073	          0.13606521	         -1.74178267	          1.38182425	          0.21078868	         -1.70673490	          1.18041503	          0.19590853	         -1.62656868	          0.58846939	          0.40213448	         -1.66880536	          0.56816882	          0.12139982	         -1.62118053	          0.65571266	          0.33465150	         -1.73733795	          0.64093649	          0.08844185	         -1.60038114	          0.57906538	          0.30723906	         -1.76072586	          0.55699074	          0.09249238	         -1.58698022	          0.14605136	          0.35648307	         -1.93604422	          0.15800415	          0.14451720	         -1.60856688	          0.20151259	          0.29494333	         -1.96493721	          0.23635516	          0.13562459	         -1.46305251	          0.04583617	          0.24709919	         -1.98369241	          0.04347258	          0.14585790	
          0.88333338	         -1.68309188	          0.97440946	          0.20091483	          5.48287868	         -1.57296455	          4.63695288	         13.97843170	         -0.02370966	         -0.73048490	        -14.90025711	         -4.98964453	          0.00000000	          0.00000000	        -14.56658936	         -4.10985518	          4.89281940	        -26.38200378	          6.85908222	          0.00000000	          0.00000000	        -23.42104530	          2.46756482	          0.75501084	        -53.38956257	        391.23396970	         -2.88355459	         -1.58293799	          0.00000000	          0.25697055	         36.14553890	        249.86357030	         -3.03025795	         -1.96444519	          0.00000000	          0.15593225	          0.00000000	          1.21869434	          0.00000000	          0.00000000	          0.33451477	          0.00000000	         -1.76033759	          0.88966978	          0.20952651	         -1.75541508	          0.87731367	          0.26220548	         -1.76430559	          0.87539458	          0.15602434	         -1.61855674	          0.48811057	          0.25795200	         -1.83197188	          0.46680701	          0.13925974	         -1.58642411	          0.07139704	          0.25114539	         -2.07918882	          0.12360198	          0.14612447	         -1.68309188	          0.97440946	          0.20091483	         -1.67434287	          0.97629797	          0.30540469	         -1.69184077	          0.97252095	          0.09642497	         -1.88271785	          0.99768966	          0.25645900	         -1.89040518	          0.99835700	          0.17213207	         -1.61431432	          0.48895380	          0.31729457	         -1.83124149	          0.46912533	          0.07980940	         -1.63173187	          0.49892908	          0.19677243	         -1.82910943	          0.46608004	          0.19080634	         -1.59132767	          0.07040365	          0.28881460	         -2.08411574	          0.12636903	          0.10703075	         -1.58533192	          0.07607755	          0.21833633	         -2.06811905	          0.13153154	          0.17486405	         -1.81961596	          1.45333862	          0.21920238	         -1.71601784	          1.37942743	          0.29314357	         -1.72894490	          1.38363993	          0.13785091	         -1.73508096	          1.38302255	          0.21260931	         -1.69960308	          1.18171155	          0.19742452	         -1.62158096	          0.58901405	          0.40310517	         -1.65909934	          0.56934607	          0.12015820	         -1.61570311	          0.65620887	          0.33570197	         -1.72858191	          0.64181095	          0.08789174	         -1.59534681	          0.57939881	          0.30844277	         -1.75115228	          0.55771083	          0.09188388	         -1.58575344	          0.14571947	          0.35702720	         -1.93081868	          0.15994096	          0.14189033	         -1.60688329	          0.20155966	          0.29579991	         -1.95866799	          0.23886999	          0.13435245	         -1.46243262	          0.04510055	          0.24745308	         -1.98235214	          0.04348718	          0.14576341	
          0.89166671	         -1.67628241	          0.97543633	          0.20194376	          5.47244835	         -1.53233111	          4.44568300	         13.54225349	          0.02908948	         -0.41513813	        -14.89113140	         -4.73574781	          0.00000000	          0.00000000	        -14.12118149	         -4.21219730	          4.31877518	        -27.63363838	          5.07612896	          0.00000000	          0.00000000	        -23.32059860	          2.56057644	          0.93551201	        -55.08242190	        409.16876010	         -6.08579041	         -1.58025525	          0.00000000	          0.25734457	         31.41378434	        212.17455634	         -3.95919740	         -1.96395691	          0.00000000	          0.15607098	          0.00000000	          1.24805347	          0.00000000	          0.00000000	          0.33273553	          0.00000000	         -1.75484943	          0.88948274	          0.21054359	         -1.74882197	          0.87832731	          0.26295680	         -1.75735211	          0.87644362	          0.15674546	         -1.61504328	          0.48828405	          0.25892025	         -1.82189584	          0.46733287	          0.13863200	         -1.58614528	          0.07135163	          0.25152937	         -2.07380891	          0.12757704	          0.14520872	         -1.67628241	          0.97543633	          0.20194376	         -1.66790020	          0.97728741	          0.30631277	         -1.68466449	          0.97358531	          0.09757475	         -1.87646365	          0.99861461	          0.25684333	         -1.88354945	          0.99956745	          0.17259470	         -1.61067748	          0.48916745	          0.31825331	         -1.82156217	          0.46991205	          0.07918887	         -1.62732363	          0.49931392	          0.19803976	         -1.81787312	          0.46579400	          0.19031270	         -1.59104538	          0.07034424	          0.28919864	         -2.07931948	          0.13090861	          0.10623715	         -1.58494949	          0.07620246	          0.21877573	         -2.06257439	          0.13557371	          0.17381054	         -1.81307077	          1.45439005	          0.22095591	         -1.70942783	          1.38043106	          0.29491878	         -1.72223210	          1.38508523	          0.13959581	         -1.72842932	          1.38423598	          0.21436299	         -1.69262493	          1.18302619	          0.19861138	         -1.61700714	          0.58948988	          0.40409920	         -1.64927340	          0.57061565	          0.11872488	         -1.61052477	          0.65664667	          0.33686182	         -1.71963739	          0.64276898	          0.08728100	         -1.59064329	          0.57960123	          0.30971530	         -1.74148715	          0.55843377	          0.09112573	         -1.58485651	          0.14543426	          0.35759506	         -1.92539489	          0.16194990	          0.13905056	         -1.60543489	          0.20163608	          0.29658502	         -1.95180285	          0.24155799	          0.13289271	         -1.46196020	          0.04457963	          0.24777099	         -1.98093057	          0.04344463	          0.14565496	
